<svg version="1.1" id="Layer_1" xmlns="http://www.w3.org/2000/svg" xmlns:xlink="http://www.w3.org/1999/xlink" x="0px" y="0px"
	 width="100%" viewBox="0 0 250 250" enable-background="new 0 0 250 250" xml:space="preserve">
<path fill="#7B7E91" opacity="1.000000" stroke="none" 
	d="
M165.000000,251.000000 
	C110.000000,251.000000 55.500008,251.000000 1.000007,251.000000 
	C1.000005,167.666672 1.000005,84.333351 1.000002,1.000019 
	C84.333321,1.000012 167.666641,1.000012 250.999969,1.000006 
	C250.999969,84.333313 250.999969,167.666626 250.999985,250.999969 
	C222.500000,251.000000 194.000000,251.000000 165.000000,251.000000 
M87.732010,174.138611 
	C104.768013,172.718582 117.865509,166.158615 120.590240,147.896835 
	C122.633926,134.199524 117.450462,120.850723 102.380798,116.718292 
	C92.766151,114.081757 83.076027,111.712067 73.502541,108.937057 
	C67.706497,107.256989 65.043823,103.359314 65.000435,97.654320 
	C64.948265,90.794289 67.290878,87.354683 73.169762,85.020493 
	C81.581535,81.680634 89.964302,82.219971 98.241371,85.186798 
	C102.479797,86.706017 106.487541,88.868835 110.893784,90.874733 
	C113.543716,86.488075 116.163551,82.151230 118.884888,77.646385 
	C102.013359,66.013618 83.934212,63.127026 65.178452,70.296432 
	C54.559704,74.355453 49.432255,83.296944 47.563770,95.103844 
	C45.487576,108.223236 54.462276,122.899673 66.841301,125.143135 
	C75.686562,126.746170 84.417236,128.991928 93.182457,131.022507 
	C98.932770,132.354630 103.561287,136.816544 103.988464,141.260468 
	C104.668350,148.333267 102.464569,152.438721 95.986168,155.482864 
	C88.278526,159.104584 80.020142,159.497284 72.056808,157.347488 
	C64.904961,155.416779 58.153271,152.003769 50.955170,149.137161 
	C48.441105,152.781296 45.422886,157.156204 42.246002,161.761093 
	C55.730114,171.742050 70.514763,175.945541 87.732010,174.138611 
M159.105057,89.401039 
	C156.260162,83.637947 153.503815,77.828064 150.502289,72.147736 
	C149.830093,70.875626 148.349503,69.244820 147.154572,69.170517 
	C141.916550,68.844818 136.646744,69.030182 130.751801,69.030182 
	C131.877609,71.480431 132.622742,73.262657 133.496643,74.979324 
	C142.165039,92.007271 150.962799,108.971199 159.399490,126.112930 
	C160.435699,128.218307 160.425644,131.644104 159.448914,133.800552 
	C154.152664,145.493607 148.396271,156.978134 142.810226,168.540222 
	C142.194092,169.815536 141.653427,171.127304 140.825424,172.989792 
	C146.426697,172.989792 151.395401,173.126709 156.345901,172.887390 
	C157.492142,172.831985 159.013000,171.743393 159.614761,170.699677 
	C162.489090,165.714355 165.218521,160.636978 167.796188,155.490494 
	C181.378738,128.372040 194.903183,101.224472 208.433701,74.079971 
	C209.183197,72.576332 209.806473,71.009758 210.696991,69.002533 
	C204.696259,69.002533 199.519653,68.751511 194.392258,69.143730 
	C192.683090,69.274475 190.356171,70.667915 189.591812,72.146095 
	C186.744232,77.652916 184.540375,83.487663 181.886002,89.100540 
	C178.292358,96.699501 174.506271,104.207451 170.246231,112.888512 
	C166.337463,104.553474 162.933121,97.294098 159.105057,89.401039 
z"/>
<path fill="#F5F5F5" opacity="1.000000" stroke="none" 
	d="
M87.327927,174.348145 
	C70.514763,175.945541 55.730114,171.742050 42.246002,161.761093 
	C45.422886,157.156204 48.441105,152.781296 50.955170,149.137161 
	C58.153271,152.003769 64.904961,155.416779 72.056808,157.347488 
	C80.020142,159.497284 88.278526,159.104584 95.986168,155.482864 
	C102.464569,152.438721 104.668350,148.333267 103.988464,141.260468 
	C103.561287,136.816544 98.932770,132.354630 93.182457,131.022507 
	C84.417236,128.991928 75.686562,126.746170 66.841301,125.143135 
	C54.462276,122.899673 45.487576,108.223236 47.563770,95.103844 
	C49.432255,83.296944 54.559704,74.355453 65.178452,70.296432 
	C83.934212,63.127026 102.013359,66.013618 118.884888,77.646385 
	C116.163551,82.151230 113.543716,86.488075 110.893784,90.874733 
	C106.487541,88.868835 102.479797,86.706017 98.241371,85.186798 
	C89.964302,82.219971 81.581535,81.680634 73.169762,85.020493 
	C67.290878,87.354683 64.948265,90.794289 65.000435,97.654320 
	C65.043823,103.359314 67.706497,107.256989 73.502541,108.937057 
	C83.076027,111.712067 92.766151,114.081757 102.380798,116.718292 
	C117.450462,120.850723 122.633926,134.199524 120.590240,147.896835 
	C117.865509,166.158615 104.768013,172.718582 87.327927,174.348145 
z"/>
<path fill="#F5F5F5" opacity="1.000000" stroke="none" 
	d="
M159.316925,89.717880 
	C162.933121,97.294098 166.337463,104.553474 170.246231,112.888512 
	C174.506271,104.207451 178.292358,96.699501 181.886002,89.100540 
	C184.540375,83.487663 186.744232,77.652916 189.591812,72.146095 
	C190.356171,70.667915 192.683090,69.274475 194.392258,69.143730 
	C199.519653,68.751511 204.696259,69.002533 210.696991,69.002533 
	C209.806473,71.009758 209.183197,72.576332 208.433701,74.079971 
	C194.903183,101.224472 181.378738,128.372040 167.796188,155.490494 
	C165.218521,160.636978 162.489090,165.714355 159.614761,170.699677 
	C159.013000,171.743393 157.492142,172.831985 156.345901,172.887390 
	C151.395401,173.126709 146.426697,172.989792 140.825424,172.989792 
	C141.653427,171.127304 142.194092,169.815536 142.810226,168.540222 
	C148.396271,156.978134 154.152664,145.493607 159.448914,133.800552 
	C160.425644,131.644104 160.435699,128.218307 159.399490,126.112930 
	C150.962799,108.971199 142.165039,92.007271 133.496643,74.979324 
	C132.622742,73.262657 131.877609,71.480431 130.751801,69.030182 
	C136.646744,69.030182 141.916550,68.844818 147.154572,69.170517 
	C148.349503,69.244820 149.830093,70.875626 150.502289,72.147736 
	C153.503815,77.828064 156.260162,83.637947 159.316925,89.717880 
z"/>
</svg>